# xmcd
#
# Track frame offsets: 
#        150
#        13578
#        25863
#        41757
#        55089
#        69492
#        81301
#        94046
#        107239
#        120547
#        134007
#        148192
#        161743
#        171472
#        183861
#        196877
#        209329
#        217067
#        228754
#        241002
#        254477
#        266694
#        281075
#        293576
#        303370
#
# Disc length: 4201 seconds
#
# Revision: 0
# Processed by: cddbd v1.5.1PL0 Copyright (c) Steve Scherf et al.
# Submitted via: ExactAudioCopy v0.95a5
#
DISCID=75106719
DTITLE=Various Artist - UMPG Blues 1929-Present [CD1]
DYEAR=2004
DGENRE=Blues
TTITLE0=Bessie Smith - Nobody Knows You When You're Down and Out
TTITLE1=Memphis Minnie - Dirty Mother For You
TTITLE2=Bessie Smith - Gimme A Pigfoot and A Bottle Of Beer
TTITLE3=Leroy Carr - I Believe I'll Make A Change
TTITLE4=Kokomo Arnold - Milk Cow Blues
TTITLE5=Georgia White - Blues Ain't Nothing But A Woman Cryin' For Her
TTITLE5=Man
TTITLE6=Joe Turner and Pete Johnson - Roll 'em Pete
TTITLE7=Maceo Merriweather - Worried Life Blues
TTITLE8=Bill Broonzy - I'm Gonna Move To The Outskirts Of Town
TTITLE9=Amos Milburn - Down The Road A Piece
TTITLE10=Stick McGhee - Drinkin' Wine Spo Dee O Dee
TTITLE11=Jimmy Witherspoon - In The Evening
TTITLE12=T-Bone Walker - Party Girl
TTITLE13=Mama Thorton - Let Your Tears Fall Baby
TTITLE14=Lightnin' Hopkins - I'm Wild About You Baby
TTITLE15=Little Walter - Tell Me Mama
TTITLE16=Mama Thorton - I Smell A Rat
TTITLE17=Bill Broonzy - Black Brown and White Blues
TTITLE18=Elmore James - Blues Before Sunrise
TTITLE19=Bobby Bland - Farther Up The Road
TTITLE20=Jimmy Witherspoon - Ain't Nobody's Business
TTITLE21=Champion Jack Dupree - Junker's Blues
TTITLE22=Little Walter - Key To The Highway
TTITLE23=Lightnin' Hopkins - See That My Grave Is Kept Clean
TTITLE24=Muddy Waters - Just A Dream
EXTD=
EXTT0=
EXTT1=
EXTT2=
EXTT3=
EXTT4=
EXTT5=
EXTT6=
EXTT7=
EXTT8=
EXTT9=
EXTT10=
EXTT11=
EXTT12=
EXTT13=
EXTT14=
EXTT15=
EXTT16=
EXTT17=
EXTT18=
EXTT19=
EXTT20=
EXTT21=
EXTT22=
EXTT23=
EXTT24=
PLAYORDER=
